# xmcd
#
# Track frame offsets:
#	150
#	9129
#	21275
#	29860
#	40018
#	58140
#	71027
#	79084
#	92047
#	103407
#	114545
#
# Disc length: 1617 seconds
# Revision: 0
# Processed by: cddbd v1.5.2PL0 Copyright (c) Steve Scherf et al.
# Submitted via: dBpowerAMP V12.0
#
DISCID=91064f0b
DTITLE=Wayne Docherty - Country Legend
DYEAR=1900
DGENRE=Country
TTITLE0=Country Legend
TTITLE1=Jodie
TTITLE2=I walk The Line
TTITLE3=Cold Goer River Bank
TTITLE4=Freight Train Yodel
TTITLE5=Back in The Saddle
TTITLE6=Book of Ages
TTITLE7=When The Rain Tumbles Down in July
TTITLE8=May I Sleep in Yout Barn Tonight Mister
TTITLE9=The Little Koori Rose
TTITLE10=Butterfly Memories
EXTD=
EXTT0=
EXTT1=
EXTT2=
EXTT3=
EXTT4=
EXTT5=
EXTT6=
EXTT7=
EXTT8=
EXTT9=
EXTT10=
PLAYORDER=
